HIERARCHY
ROOT pelvis
{
  OFFSET 0 100 0
  CHANNELS 6 Xposition Yposition Zposition Zrotation Xrotation Yrotation
  JOINT pelvis_right_femur
  {
    OFFSET -10.78128 -3.44521 -0.5502486
    CHANNELS 3 Zrotation Xrotation Yrotation
    JOINT right_femur_tibia
    {
      OFFSET -0.8047443 -44.0398 -0.1307829
      CHANNELS 3 Zrotation Xrotation Yrotation
      JOINT right_tibia_foot
      {
        OFFSET 3.006224 -47.83518 -5
        CHANNELS 3 Zrotation Xrotation Yrotation
        End Site
        {
          OFFSET 0 -5 15
        }
      }
    }
  }
  JOINT pelvis_left_femur
  {
    OFFSET 10.78128 -3.44521 -0.5502486
    CHANNELS 3 Zrotation Xrotation Yrotation
    JOINT left_femur_tibia
    {
      OFFSET 0.8047443 -44.0398 -0.1307829
      CHANNELS 3 Zrotation Xrotation Yrotation
      JOINT left_tibia_foot
      {
        OFFSET -4.370144 -48.10324 -4.275266
        CHANNELS 3 Zrotation Xrotation Yrotation
        End Site
        {
          OFFSET 0 -5 15
        }
      }
    }
  }
  JOINT pelvis_spine1
  {
    OFFSET 0 6.468898 -3.129235
    CHANNELS 3 Zrotation Xrotation Yrotation
    JOINT spine1
    {
      OFFSET 0 23.15396 4.99043
      CHANNELS 3 Zrotation Xrotation Yrotation
      JOINT spine2
      {
        OFFSET 0 20.79997 -5.064912
        CHANNELS 3 Zrotation Xrotation Yrotation
        JOINT neck
        {
          OFFSET 0 14.38658 9.616178
          CHANNELS 3 Zrotation Xrotation Yrotation
          End Site
          {
            OFFSET 0 20 0
          }
        }
      }
      JOINT right_manubrium
      {
        OFFSET -5.722621 16.35077 3.967754
        CHANNELS 3 Zrotation Xrotation Yrotation
        JOINT right_clavicle
        {
          OFFSET -13.16364 1.694482 -4.693211
          CHANNELS 3 Zrotation Xrotation Yrotation
          JOINT right_humerus
          {
            OFFSET -28.5034 -0.3100689 -2.792744
            CHANNELS 3 Zrotation Xrotation Yrotation
            JOINT right_radius
            {
              OFFSET -25.15693 0.02248979 -1.271978
              CHANNELS 3 Zrotation Xrotation Yrotation
              End Site
              {
                OFFSET -15 0 0
              }
            }
          }
        }
      }
      JOINT left_manubrium
      {
        OFFSET 5.722621 16.35077 3.967754
        CHANNELS 3 Zrotation Xrotation Yrotation
        JOINT left_clavicle
        {
          OFFSET 13.16364 1.694482 -4.693211
          CHANNELS 3 Zrotation Xrotation Yrotation
          JOINT left_humerus
          {
            OFFSET 29.39168 -1.063119 -2.237045
            CHANNELS 3 Zrotation Xrotation Yrotation
            JOINT left_radius
            {
              OFFSET 24.59957 -0.9528479 0.9047498
              CHANNELS 3 Zrotation Xrotation Yrotation
              End Site
              {
                OFFSET 15 -0 -0
              }
            }
          }
        }
      }
    }
  }
}
MOTION
Frames: 13
Frame Time: 0.0416666666667
0 103.5113 0 1.883505 -1.527898 -0.05750706 1.978909 -11.26715 7.836032 -0 35.74717 -0 -6.85989 -19.56682 -2.115546 -7.418423 11.07573 -24.97969 -0 5.316267 -0 10.93808 -13.52709 27.07797 -3.004327 -3.177791 4.841482 2.988228 9.873602 -7.980969 1.17577 20.64011 6.957668 3.610083 -25.31355 9.107461 5.853805 -19.63556 11.25675 85.64002 34.73906 -19.10145 -0 0 16.02612 -8.127205 8.155426 4.351144 6.971161 -21.23878 -0.8790388 -93.20811 21.01712 21.50065 0 0 -13.99226 13.22897 14.93602 -1.485418
0.2870586 103.6354 1.396941 1.487739 -1.048023 -0.1588549 2.640323 -13.99811 8.106657 -0 36.33295 -0 -6.695473 -18.08751 -2.506941 -7.264521 11.49247 -24.49537 -0 5.20951 -0 9.942547 -15.1543 26.7759 -2.870951 -2.930894 4.674033 3.081667 9.725938 -8.055857 1.175306 20.46555 7.116423 3.718477 -25.65111 9.196136 5.796558 -19.34821 11.32801 85.78071 34.74783 -19.23094 -0 0 15.65864 -8.218881 8.317909 4.478558 7.011988 -21.19517 -0.7028609 -92.87427 20.98581 20.86812 0 0 -14.48557 13.10217 14.66007 -1.580501
0.633764 103.4264 3.229973 0.6710243 -0.4330907 -0.1739908 3.379793 -20.20843 6.925556 -0 34.16723 -0 -5.988457 -13.36254 -2.918458 -6.814411 11.45867 -21.31256 -0 4.208147 -0 8.465059 -17.5571 24.33325 -2.666064 -2.769831 4.501311 3.147542 9.519244 -8.122048 1.312373 20.32814 7.154623 3.747879 -26.14324 9.416272 5.889064 -18.89491 11.24694 85.96777 34.95149 -19.70651 -0 0 15.13918 -7.93639 8.588038 4.373793 7.143032 -21.11518 -0.4976606 -92.78236 21.69962 20.32243 0 0 -15.21851 12.80573 14.77973 -1.023193
0.9627839 103.0181 5.186026 0.2478622 0.5156769 -0.1902664 4.151085 -24.47912 6.911342 -0 31.58383 -0 -5.272441 -11.88926 -3.162996 -6.651466 11.8374 -20.29296 -0 3.924718 -0 7.62411 -19.45743 23.37778 -2.555031 -2.619261 4.263945 3.263234 9.285046 -8.229226 1.416713 20.14222 7.248804 3.814966 -26.68096 9.64142 5.960634 -18.49236 11.22004 86.16096 35.10142 -20.11534 -0 0 14.71085 -7.651835 8.688828 4.280903 7.266985 -21.00428 -0.3102799 -92.58023 22.06229 19.65341 0 0 -15.82205 12.71674 14.80279 -0.8952592
1.262125 102.3718 7.392293 -0.07790496 1.290745 -0.2098166 4.715049 -28.27691 6.383375 -0 27.77317 -0 -4.995436 -9.929107 -3.013487 -6.477544 12.30152 -19.30947 -0 4.122212 -0 6.554577 -21.29174 22.27504 -2.392966 -2.434541 4.01617 3.386252 9.036216 -8.343298 1.521515 19.93021 7.348659 3.893043 -27.23205 9.857965 6.029019 -18.04646 11.19944 86.36922 35.23276 -20.55909 -0 0 14.22077 -7.404453 8.867419 4.217061 7.39114 -20.90495 -0.1218932 -92.34942 22.45101 18.94513 0 0 -16.52467 12.54207 14.79716 -0.6630664
1.508233 101.5552 9.946916 -0.3593286 1.863363 -0.1983075 5.150946 -31.16994 5.631181 -0 23.83403 -0 -5.221932 -7.757513 -2.649341 -6.250234 12.85649 -18.5645 -0 5.058388 -0 4.91528 -23.00377 21.05746 -2.216969 -2.232566 3.815287 3.494086 8.837157 -8.440518 1.579945 19.7327 7.453038 3.9786 -27.64608 9.991371 6.058904 -17.66201 11.21496 86.53853 35.29755 -20.89598 -0 0 13.76739 -7.325826 9.08981 4.245036 7.475764 -20.85081 0.02532844 -92.09058 22.67184 18.31887 0 0 -17.16812 12.32559 14.68746 -0.4502871
1.687159 100.6242 13.01566 -0.5806807 2.091212 -0.08721334 5.304207 -33.00829 4.519504 -0 19.98249 -0 -5.743984 -5.397518 -2.252841 -5.937504 13.54314 -17.6918 -0 6.695045 -0 2.683444 -24.27528 19.37552 -2.024124 -2.00314 3.64158 3.596499 8.670971 -8.530915 1.600297 19.53702 7.569375 4.075748 -27.96555 10.05929 6.058698 -17.30221 11.26404 86.68562 35.3147 -21.16487 -0 0 13.30668 -7.394158 9.358814 4.357827 7.532883 -20.8334 0.145807 -91.78278 22.75167 17.7089 0 0 -17.80735 12.06536 14.47312 -0.2508467
1.793318 99.67599 16.73303 -0.7718046 2.15964 0.1889691 5.346668 -33.90505 3.373726 -0 16.48915 -0 -6.295592 -3.259225 -1.981938 -5.558753 14.35955 -16.6909 -0 9.011132 -0 0.07941283 -24.89519 17.25186 -1.843141 -1.773279 3.489304 3.693902 8.536611 -8.617789 1.592591 19.34936 7.69117 4.17725 -28.20702 10.08083 6.039225 -16.97815 11.33556 86.81414 35.29838 -21.38022 -0 0 12.86287 -7.559718 9.631569 4.522019 7.572758 -20.84186 0.238496 -91.44525 22.70349 17.1188 0 0 -18.41432 11.80957 14.19132 -0.1052834
1.835159 98.82554 21.19604 -0.9535697 2.216559 0.6662358 5.430594 -33.96341 2.399581 -0 13.56351 -0 -6.71246 -1.520342 -1.881326 -5.1606 15.24515 -15.51488 -0 12.04014 -0 -2.508096 -24.60966 14.80641 -1.685624 -1.551418 3.347531 3.790093 8.427852 -8.707561 1.563766 19.1642 7.821601 4.28409 -28.3948 10.07294 6.004103 -16.68479 11.42469 86.93593 35.25595 -21.56236 -0 0 12.43429 -7.79652 9.892161 4.720123 7.606654 -20.87034 0.3094853 -91.07511 22.53315 16.52092 0 0 -19.00134 11.58281 13.85458 -0.04278438
1.837283 98.21538 26.42474 -1.207224 2.444618 1.326156 5.793504 -33.30969 1.908704 -0 11.5969 -0 -6.959764 -0.3727253 -1.954957 -4.759907 15.99657 -14.25532 -0 15.96301 -0 -4.726031 -23.21928 12.28244 -1.559524 -1.349967 3.227046 3.876073 8.355308 -8.794267 1.516287 18.9944 7.95304 4.389584 -28.51575 10.03669 5.95056 -16.43999 11.52435 87.05078 35.18597 -21.70515 -0 0 12.04095 -8.096578 10.12861 4.9405 7.634345 -20.92082 0.3547773 -90.69379 22.25954 15.94757 0 0 -19.54642 11.39217 13.48183 -0.0588271
1.837592 97.98232 32.33197 -1.629175 2.88635 2.061193 6.585597 -31.9781 2.09825 -0 11.04836 -0 -7.158612 0.0767653 -2.124817 -4.335246 16.24906 -13.04647 -0 21.11502 -0 -6.259911 -20.52398 9.983618 -1.470014 -1.176742 3.151427 3.936072 8.340842 -8.863815 1.446705 18.86435 8.073958 4.483846 -28.53338 9.959915 5.867067 -16.27548 11.63034 87.15008 35.07497 -21.77649 -0 0 11.71343 -8.473133 10.32837 5.184752 7.643421 -20.99855 0.3649293 -90.32935 21.89961 15.46187 0 0 -20.00238 11.23067 13.08258 -0.1342907
1.877276 98.22464 38.68334 -2.292854 3.370037 2.655518 7.805515 -29.86362 2.984198 -0 12.26297 -0 -7.604809 -0.2248276 -2.211303 -3.806083 15.41202 -12.11423 -0 27.97654 -0 -7.025756 -16.44191 8.249849 -1.419871 -1.039777 3.163548 3.943642 8.421146 -8.888081 1.348502 18.81982 8.158811 4.546324 -28.3823 9.815817 5.735855 -16.24563 11.73678 87.20826 34.89416 -21.70806 -0 0 11.50848 -8.94751 10.47085 5.463291 7.601519 -21.10649 0.320773 -90.03745 21.49553 15.19335 0 0 -20.26635 11.07002 12.67307 -0.208255
1.983683 98.93848 45.09784 -3.061294 3.353834 2.818163 9.058923 -26.60841 4.133082 -0 14.86114 -0 -8.516396 -1.193443 -2.020933 -3.125943 12.75641 -11.57655 -0 36.87618 -0 -7.358432 -11.31823 7.398848 -1.410419 -0.9471929 3.324575 3.862614 8.647251 -8.824345 1.211325 18.92411 8.168985 4.547347 -27.96797 9.562194 5.531646 -16.43207 11.83823 87.1763 34.59185 -21.38348 -0 0 11.51964 -9.556581 10.53021 5.803468 7.454522 -21.24215 0.1934218 -89.89927 21.10221 15.33943 0 0 -20.17051 10.86117 12.26813 -0.1844555
